<svg xmlns="http://www.w3.org/2000/svg" width="1200" height="1000" viewBox="0 0 1200 1000" font-family="Inter, Geist, 'Segoe UI', system-ui, sans-serif">
<defs>
  <linearGradient id="sky" x1="0" y1="0" x2="0" y2="1">
    <stop offset="0" stop-color="#EFF6FF"/><stop offset="1" stop-color="#DBEAFE"/>
  </linearGradient>
  <linearGradient id="skyDeep" x1="0" y1="0" x2="0" y2="1">
    <stop offset="0" stop-color="#DBEAFE"/><stop offset="1" stop-color="#BFDBFE"/>
  </linearGradient>
  <linearGradient id="primary" x1="0" y1="0" x2="1" y2="1">
    <stop offset="0" stop-color="#60A5FA"/><stop offset="1" stop-color="#2563EB"/>
  </linearGradient>
  <linearGradient id="primaryDeep" x1="0" y1="0" x2="0" y2="1">
    <stop offset="0" stop-color="#2563EB"/><stop offset="1" stop-color="#1D4ED8"/>
  </linearGradient>
  <linearGradient id="navy" x1="0" y1="0" x2="0" y2="1">
    <stop offset="0" stop-color="#1E40AF"/><stop offset="1" stop-color="#172554"/>
  </linearGradient>
  <linearGradient id="card" x1="0" y1="0" x2="0" y2="1">
    <stop offset="0" stop-color="#FFFFFF"/><stop offset="1" stop-color="#EFF6FF"/>
  </linearGradient>
  <linearGradient id="gold" x1="0" y1="0" x2="1" y2="1">
    <stop offset="0" stop-color="#FBBF24"/><stop offset="1" stop-color="#F59E0B"/>
  </linearGradient>
  <linearGradient id="sun" x1="0" y1="0" x2="0" y2="1">
    <stop offset="0" stop-color="#FDE68A"/><stop offset="1" stop-color="#F59E0B"/>
  </linearGradient>
  <linearGradient id="warm" x1="0" y1="0" x2="0" y2="1">
    <stop offset="0" stop-color="#FFFBEB"/><stop offset="1" stop-color="#FEF3C7"/>
  </linearGradient>
  <radialGradient id="glow" cx="0.5" cy="0.5" r="0.5">
    <stop offset="0" stop-color="#93C5FD" stop-opacity="0.55"/><stop offset="1" stop-color="#93C5FD" stop-opacity="0"/>
  </radialGradient>
  <radialGradient id="glowWarm" cx="0.5" cy="0.5" r="0.5">
    <stop offset="0" stop-color="#FDE68A" stop-opacity="0.5"/><stop offset="1" stop-color="#FDE68A" stop-opacity="0"/>
  </radialGradient>
  <filter id="s1" x="-40%" y="-40%" width="180%" height="180%">
    <feDropShadow dx="0" dy="3" stdDeviation="4" flood-color="#1E40AF" flood-opacity="0.10"/>
  </filter>
  <filter id="s2" x="-40%" y="-40%" width="180%" height="180%">
    <feDropShadow dx="0" dy="6" stdDeviation="10" flood-color="#1E40AF" flood-opacity="0.14"/>
  </filter>
  <filter id="s3" x="-60%" y="-60%" width="220%" height="220%">
    <feDropShadow dx="0" dy="14" stdDeviation="20" flood-color="#1E3A8A" flood-opacity="0.18"/>
  </filter>
</defs><rect width="1200" height="1000" fill="url(#sky)"/><ellipse cx="600" cy="420" rx="408.00000000000006" ry="300" fill="url(#glow)"/><ellipse cx="600" cy="970" rx="432" ry="16.5" fill="#BFDBFE" opacity="0.45"/><path d="M 210 198 C 219.24 207.24 232 220 C 219.24 232.76 210 242 C 197.24 232.76 188 220 C 197.24 207.24 210 198 Z" fill="#60A5FA"/><path d="M 1030 210 C 1038.4 218.4 1050 230 C 1038.4 241.6 1030 250 C 1018.4 241.6 1010 230 C 1018.4 218.4 1030 210 Z" fill="#F59E0B"/><g transform="translate(260 800) scale(0.85)"><g>
    <rect x="-20" y="-2" width="16" height="54" rx="8" fill="#1F2937"/>
    <rect x="4" y="-2" width="16" height="54" rx="8" fill="#1F2937"/>
    <rect x="-26" y="46" width="21" height="12" rx="6" fill="#1F2937"/>
    <rect x="2" y="46" width="21" height="12" rx="6" fill="#1F2937"/>
  </g><g>
      <rect x="-58" y="-52" width="15" height="44" rx="7.5" fill="#1D4ED8" transform="rotate(-20 -50.5 -30)"/>
      <circle cx="-47" cy="-24" r="8" fill="#A96E3F"/>
      <rect x="43" y="-52" width="15" height="44" rx="7.5" fill="#1D4ED8" transform="rotate(20 50.5 -30)"/>
      <circle cx="47" cy="-24" r="8" fill="#A96E3F"/>
    </g><rect x="-28" y="-62" width="56" height="64" rx="24" fill="#1F2937"/><g>
    <circle cx="0" cy="-86" r="30" fill="#A96E3F"/>
    <path d="M -30,-84 A 30,30 0 0,1 30,-84 Q 24,-103 0,-105 Q -24,-103 -30,-84 Z" fill="#7C2D12"/>
    <path d="M -16,-88 Q -11,-92 -6,-88" fill="none" stroke="#7C2D12" stroke-width="3" stroke-linecap="round"/>
    <path d="M 6,-88 Q 11,-92 16,-88" fill="none" stroke="#7C2D12" stroke-width="3" stroke-linecap="round"/>
    <path d="M -9,-75 Q 0,-68 9,-75" fill="none" stroke="#B45309" stroke-width="3" stroke-linecap="round"/>
  </g></g><g transform="translate(940 800) scale(-0.85 0.85)"><g>
    <rect x="-20" y="-2" width="16" height="54" rx="8" fill="#1F2937"/>
    <rect x="4" y="-2" width="16" height="54" rx="8" fill="#1F2937"/>
    <rect x="-26" y="46" width="21" height="12" rx="6" fill="#1F2937"/>
    <rect x="2" y="46" width="21" height="12" rx="6" fill="#1F2937"/>
  </g><g>
      <rect x="-46" y="-56" width="15" height="52" rx="7.5" fill="#1D4ED8"/>
      <circle cx="-38.5" cy="-6" r="8" fill="#8D5A3B"/>
      <rect x="28" y="-88" width="15" height="60" rx="7.5" fill="#1D4ED8" transform="rotate(16 35.5 -58)"/>
      <circle cx="46" cy="-42" r="8" fill="#8D5A3B"/>
      <rect x="40" y="-74" width="22" height="40" rx="6" fill="#111827" stroke="#D1D5DB" stroke-width="2"/>
      <rect x="43" y="-70" width="16" height="22" rx="3" fill="#DBEAFE"/>
    </g><rect x="-28" y="-62" width="56" height="64" rx="24" fill="#1D4ED8"/><g>
    <circle cx="0" cy="-86" r="30" fill="#8D5A3B"/>
    <path d="M -30,-84 A 30,30 0 0,1 30,-84 Q 24,-103 0,-105 Q -24,-103 -30,-84 Z" fill="#1F2937"/>
    <path d="M -16,-88 Q -11,-92 -6,-88" fill="none" stroke="#1F2937" stroke-width="3" stroke-linecap="round"/>
    <path d="M 6,-88 Q 11,-92 16,-88" fill="none" stroke="#1F2937" stroke-width="3" stroke-linecap="round"/>
    <path d="M -9,-75 Q 0,-68 9,-75" fill="none" stroke="#B45309" stroke-width="3" stroke-linecap="round"/>
  </g></g><g transform="translate(600 840) scale(0.9)"><g>
    <rect x="-20" y="-2" width="16" height="54" rx="8" fill="#1F2937"/>
    <rect x="4" y="-2" width="16" height="54" rx="8" fill="#1F2937"/>
    <rect x="-26" y="46" width="21" height="12" rx="6" fill="#1F2937"/>
    <rect x="2" y="46" width="21" height="12" rx="6" fill="#1F2937"/>
  </g><g>
      <rect x="-58" y="-74" width="15" height="52" rx="7.5" fill="#1D4ED8" transform="rotate(-42 -50.5 -48)"/>
      <circle cx="-54" cy="-22" r="8" fill="#C98A5F"/>
      <rect x="34" y="-60" width="15" height="54" rx="7.5" fill="#1D4ED8"/>
      <circle cx="41.5" cy="-8" r="8" fill="#C98A5F"/>
    </g><rect x="-28" y="-62" width="56" height="64" rx="24" fill="#1E40AF"/><g>
    <circle cx="0" cy="-86" r="30" fill="#C98A5F"/>
    <path d="M -30,-84 A 30,30 0 0,1 30,-84 Q 24,-103 0,-105 Q -24,-103 -30,-84 Z" fill="#172554"/>
    <path d="M -16,-88 Q -11,-92 -6,-88" fill="none" stroke="#172554" stroke-width="3" stroke-linecap="round"/>
    <path d="M 6,-88 Q 11,-92 16,-88" fill="none" stroke="#172554" stroke-width="3" stroke-linecap="round"/>
    <path d="M -9,-75 Q 0,-68 9,-75" fill="none" stroke="#B45309" stroke-width="3" stroke-linecap="round"/>
  </g></g><g transform="translate(600 560)">
      <rect x="-80" y="-64" width="160" height="34" rx="10" fill="#2563EB"/>
      <rect x="-70" y="-40" width="140" height="120" rx="12" fill="#93C5FD"/>
      <rect x="-40" y="-30" width="80" height="52" rx="6" fill="#DBEAFE"/>
      <path d="M -70 30 L 70 30" stroke="#60A5FA" stroke-width="6" stroke-linecap="round"/>
      <path d="M -16 30 L -16 80 L 16 80 L 16 30" fill="#2563EB"/>
    </g><path d="M 260 700 C 260 620, 520 620, 520 570" fill="none" stroke="#60A5FA" stroke-width="3" stroke-linecap="round"/><path d="M 940 700 C 940 620, 680 620, 680 570" fill="none" stroke="#60A5FA" stroke-width="3" stroke-linecap="round"/><path d="M 600 700 C 600 640, 600 640, 600 590" fill="none" stroke="#93C5FD" stroke-width="3" stroke-linecap="round" stroke-dasharray="2 9"/><circle cx="300" cy="620" r="30" fill="#22C55E" stroke="#FFFFFF" stroke-width="4"/><path d="M 293.7 620 L 298.8 625.1 L 306.9 614.9" fill="none" stroke="#FFFFFF" stroke-width="6" stroke-linecap="round" stroke-linejoin="round"/><circle cx="900" cy="620" r="30" fill="#2563EB" stroke="#FFFFFF" stroke-width="4"/><path d="M 893.7 620 L 898.8 625.1 L 906.9 614.9" fill="none" stroke="#FFFFFF" stroke-width="6" stroke-linecap="round" stroke-linejoin="round"/><path d="M 600 358 C 609.24 367.24 622 380 C 609.24 392.76 600 402 C 587.24 392.76 578 380 C 587.24 367.24 600 358 Z" fill="#F59E0B"/><path d="M 430 412 C 437.56 419.56 448 430 C 437.56 440.44 430 448 C 419.56 440.44 412 430 C 419.56 419.56 430 412 Z" fill="#93C5FD"/><path d="M 780 412 C 787.56 419.56 798 430 C 787.56 440.44 780 448 C 769.56 440.44 762 430 C 769.56 419.56 780 412 Z" fill="#93C5FD"/><path d="M 200 544 C 206.72 550.72 216 560 C 206.72 569.28 200 576 C 190.72 569.28 184 560 C 190.72 550.72 200 544 Z" fill="#60A5FA"/><path d="M 1020 544 C 1026.72 550.72 1036 560 C 1026.72 569.28 1020 576 C 1010.72 569.28 1004 560 C 1010.72 550.72 1020 544 Z" fill="#60A5FA"/></svg>